<?xml version="1.0" encoding="utf-8"?>
<!-- Generator: Adobe Illustrator 19.1.0, SVG Export Plug-In . SVG Version: 6.00 Build 0)  -->
<svg version="1.1" id="Layer_1" xmlns="http://www.w3.org/2000/svg" xmlns:xlink="http://www.w3.org/1999/xlink" x="0px" y="0px"
	 viewBox="-716 955.5 529.7 90.4" style="enable-background:new -716 955.5 529.7 90.4;" xml:space="preserve">
<style type="text/css">
	.st0{fill:#4FD6F6;}
	.st1{fill:#9AE8FA;}
	.st2{fill:#03C5F2;}
	.st3{fill:url(#SVGID_1_);}
	.st4{fill:#06429E;}
</style>
<g id="Pantone_2728">
</g>
<g id="Pantone_2995_-_overprint">
</g>
<g id="Pantone_311_-_overprint">
</g>
<g>
	<path class="st0" d="M-630,988.6c-1.9-1.9-2.8-4.4-2.9-7c-15-0.9-30-0.4-46,1.5c-1.3,0.2-2.2,1-2.3,1.7c-0.2,0.8,0.7,1.3,1,1.4
		c6.8,3,10.3,4.8,16.6,8.4c0.5,0.3,1.1,0.4,1.8,0.4c3.2-0.2,6.4-0.4,9.5-0.5c10-0.3,19.7,0.1,29.1,1.1L-630,988.6z"/>
	<path class="st1" d="M-614.2,1005l-2.9-3c-10.7-1.6-21.5-2.4-32.3-2.2l0,0c-1,0-1.9,0.6-2.1,1.3c-0.3,0.7,0.2,1.4,0.7,1.7
		c5.8,4,8.6,6.2,13.8,10.7c0.4,0.3,0.8,0.5,1.3,0.5c6.4,0.4,11.5,0.8,16.3,1.5L-614.2,1005z"/>
	<path class="st2" d="M-623.1,971.3c0.6,0,1.1,0,1.7,0.1l23,2.8l3.5-7c-40.3-8.2-78.2-6.8-118.5,4.1c-1.5,0.5-2.5,1.5-2.6,2.3
		c-0.1,0.7,1,1,1.3,1.1c7.8,1.8,11.7,3,19.2,5.5c0.7,0.2,1.5,0.3,2.3,0.1c13.8-2.6,27-4,40-4.4c7.3-0.2,14.6-0.1,21.9,0.4
		C-629.7,973.3-626.5,971.4-623.1,971.3z"/>
	
		<linearGradient id="SVGID_1_" gradientUnits="userSpaceOnUse" x1="-668.6937" y1="980.4662" x2="-582.4924" y2="980.4662" gradientTransform="matrix(0.9992 -3.980000e-02 -3.980000e-02 -0.9992 80.9852 1955.9426)">
		<stop  offset="0" style="stop-color:#FF8C00"/>
		<stop  offset="0.7" style="stop-color:#FFD200"/>
	</linearGradient>
	<path class="st3" d="M-540.5,990.2c-0.4-1.9-1.9-3.3-3.8-3.5l-26.9-3.3l-4.3-24.2c-0.3-1.9-1.8-3.3-3.7-3.6
		c-1.9-0.3-3.7,0.7-4.6,2.4l-11.3,22.5l-27-3.3c-1.9-0.2-3.7,0.7-4.5,2.4c-0.8,1.7-0.5,3.7,0.8,5.1l18.7,19.4l-13.8,27.5l0,0l0,0
		c-0.1,0.1-0.1,0.2-0.1,0.3s-0.1,0.2-0.1,0.3c0,0.1-0.1,0.2-0.1,0.3s-0.1,0.2-0.1,0.4c0,0.1,0,0.2,0,0.4c0,0.1,0,0.2,0,0.4
		c0,0.1,0,0.2,0,0.3s0,0.2,0,0.3s0.1,0.2,0.1,0.3c0,0.1,0.1,0.2,0.1,0.4c0,0.1,0.1,0.2,0.1,0.3c0.1,0.1,0.1,0.2,0.2,0.4
		c0,0.1,0.1,0.2,0.2,0.3c0.1,0.1,0.1,0.2,0.2,0.3c0.1,0.1,0.1,0.1,0.2,0.2s0.2,0.2,0.3,0.3l0,0l0,0c0.2,0.2,0.4,0.3,0.5,0.4
		c0.1,0,0.1,0.1,0.2,0.1c0.1,0.1,0.3,0.2,0.4,0.2c0.1,0,0.2,0.1,0.3,0.1c0.1,0,0.3,0.1,0.4,0.1c0.1,0,0.2,0,0.3,0.1
		c0.1,0,0.2,0.1,0.4,0.1l0,0c0.1,0,0.3,0,0.4,0s0.2,0,0.3,0c0.2,0,0.3,0,0.5-0.1c0.1,0,0.2,0,0.2,0c0.2,0,0.4-0.1,0.5-0.2
		c0.1,0,0.1,0,0.2,0c0.2-0.1,0.4-0.2,0.7-0.3l25.4-15l20.5,22.2c0.7,0.8,1.7,1.3,2.7,1.4c0.8,0.1,1.7,0,2.5-0.4
		c1.8-0.9,2.7-2.8,2.4-4.7l-5.6-31.6l24.1-14.2C-540.9,993.9-540.1,992-540.5,990.2z"/>
</g>
<path class="st4" d="M-410.9,1008.6c1.5,0,2.8-1.3,2.8-2.8c0-13-8.1-19-18.7-19c-11.2,0-19.2,8-19.2,19.2c0,11.8,8,19.4,19.5,19.4
	c5.4,0,11.5-2,15.2-5.8c0.6-0.6,0.8-1.2,0.8-2c0-1.5-1.2-2.8-2.8-2.8c-0.8,0-1.5,0.3-2,0.8c-2.6,2.6-7.3,4-11.1,4
	c-7.1,0-12.8-4.3-13.4-11.1L-410.9,1008.6z M-439.8,1003.4c1.1-7.1,6.7-11,13.1-11c7.3,0,12.2,3.9,12.5,11H-439.8z"/>
<path class="st4" d="M-500,986.9c-5.5,0-11,2.2-13.7,7.1v-4.1c0-1.7-1.3-3.1-3-3.1s-3,1.4-3,3.1c0,0,0,47.7,0,49.3
	c0,1.7,1.3,3.1,3,3.1s3-1.4,3-3.1c0-1.7,0-21.3,0-21.3c2.6,5,8.6,7.4,13.8,7.4c10.6,0,18.9-6.7,18.9-19.2
	C-481.1,993.8-489.3,986.9-500,986.9z M-500.4,1019.6c-7.3,0-13.1-5.5-13.1-13.4c0-8,5.7-13.4,13.1-13.4c7.2,0,13.1,4.9,13.1,13.4
	C-487.3,1014.9-493.2,1019.6-500.4,1019.6z"/>
<path class="st4" d="M-450.2,988.3c-2.1-1-4.1-1.5-6.6-1.5c-4.6,0-9.2,1.7-11.6,5.7v-2.7c0-1.6-1.3-3-3-3c-1.7,0-3,1.3-3,3
	c0,0,0,30.8,0,32.5s1.4,3.1,3.1,3.1c1.7,0,3.1-1.4,3.1-3.1c0-1.7,0-18.3,0-18.3c0-7.1,3.9-11,11-11.1c1.7,0,3.1,0.3,4.5,1
	c0.4,0.2,0.8,0.3,1.2,0.3c1.7,0,3-1.3,3-3C-448.5,989.8-449.2,988.7-450.2,988.3z"/>
<path class="st4" d="M-379.9,1022c0-1.5-1.2-2.7-2.7-2.7c-0.2,0-0.5,0-0.7,0.1l0,0c-0.8,0.2-1.6,0.3-2.4,0.3c-4.4,0-5.9-2.8-5.9-7.1
	V993h7c1.5,0,2.6-1.2,2.6-2.6c0-1.4-1.2-2.6-2.6-2.6h-6.9V980c0-1.7-1.4-3.1-3.1-3.1s-3.1,1.4-3.1,3.1v7.8h-4.8
	c-1.5,0-2.6,1.2-2.6,2.6c0,1.5,1.2,2.6,2.6,2.6h4.8v19.6c0,8.2,3.8,12.8,11.7,12.7c1.3,0,2.6-0.2,3.9-0.6l0,0c0.1,0,0.2-0.1,0.2-0.1
	C-380.7,1024.3-379.9,1023.3-379.9,1022z"/>
<path class="st4" d="M-352.6,1022c0-1.5-1.2-2.7-2.7-2.7c-0.2,0-0.5,0-0.7,0.1l0,0c-0.8,0.2-1.6,0.3-2.4,0.3c-4.4,0-5.9-2.8-5.9-7.1
	V993h8.2c1.5,0,2.6-1.2,2.6-2.6c0-1.4-1.2-2.6-2.6-2.6h-8.1V980c0-1.7-1.4-3.1-3.1-3.1s-3.1,1.4-3.1,3.1v7.8h-4.8
	c-1.5,0-2.6,1.2-2.6,2.6c0,1.4,1.2,2.6,2.6,2.6h4.8v19.6c0,8.2,3.8,12.8,11.7,12.7c1.3,0,2.6-0.2,3.9-0.6l0,0c0.1,0,0.2-0.1,0.2-0.1
	C-353.4,1024.3-352.6,1023.3-352.6,1022z"/>
<path class="st4" d="M-312.8,989.9c0-1.7-1.4-3.2-3.2-3.2c-1.4,0-2.5,0.9-3,2.1l-11.1,28.8l-12-29l0,0c-0.5-1.1-1.6-1.8-2.8-1.8
	c-1.7,0-3.2,1.4-3.2,3.2c0,0.4,0.1,0.8,0.2,1.2l0,0l14.1,33.1l-3.5,8.9c-1.8,3.9-5,3.8-8.2,2.4l0,0c-0.4-0.2-0.7-0.3-1.2-0.3
	c-1.6,0-2.8,1.3-2.8,2.8c0,1.1,0.7,2.1,1.6,2.5l0,0c6.8,3.3,13.3,2.1,16.4-5.7l18.2-44C-312.8,990.7-312.8,990.3-312.8,989.9z"/>
<path class="st4" d="M-240.1,987c-5,0-8.9,1.7-12.4,6.5v-2.8c0-1.6-1.3-3-3-3c-1.6,0-3,1.3-3,3v31.8c0,1.7,1.4,3,3,3
	c1.7,0,3-1.4,3-3v-17.6c0-7.3,5-12,11.7-12c7.6,0,10.6,3.6,10.6,11.6v18c0,1.7,1.4,3.1,3.1,3.1s3.1-1.4,3.1-3.1v-18.3
	C-223.9,993.3-229.3,987-240.1,987z"/>
<path class="st4" d="M-200.2,1003.1l13-10.9c0.6-0.5,0.9-1.2,0.9-2c0-1.4-1.2-2.6-2.6-2.6c-0.7,0-1.3,0.3-1.8,0.7L-209,1004v-28.8
	c0-1.7-1.4-3-3-3c-1.7,0-3,1.4-3,3v47.2c0,1.7,1.4,3,3,3c1.7,0,3-1.4,3-3v-12.1l4.1-3.4l12.6,17.4c0.6,0.7,1.4,1.2,2.4,1.2
	c1.7,0,3.1-1.4,3.1-3.1c0-0.7-0.2-1.3-0.6-1.8L-200.2,1003.1z"/>
<path class="st4" d="M-289.9,972.2c-1.7,0-3,1.4-3,3v47.2c0,1.7,1.4,3,3,3s3-1.4,3-3v-47.2C-286.8,973.5-288.2,972.2-289.9,972.2z"
	/>
<g>
	<path class="st4" d="M-268.2,979.6c0-4.9-7.4-4.9-7.4-0.1C-275.6,984.5-268.2,984.5-268.2,979.6z"/>
	<path class="st4" d="M-272,988.9c-1.7,0-3.1,1.4-3.1,3.1v30.3c0,1.7,1.4,3.1,3.1,3.1s3.1-1.4,3.1-3.1V992
		C-268.9,990.3-270.3,988.9-272,988.9z"/>
</g>
</svg>
